# Wavefront OBJ exported by MilkShape 3D

mtllib bush.mtl

v -5.669920 14.423046 -12.642692
v 2.194787 -0.102896 -10.380035
v -11.505483 14.693798 10.550233
v -3.642416 0.167853 12.799553
v 11.071645 19.422897 -12.992769
v 13.846721 -0.111921 -3.289849
v -17.315163 19.422897 -4.850948
v -14.532603 -0.111921 4.857823
v 4.358594 19.070919 19.038570
v 11.166578 -0.111921 10.324743
v -18.900736 19.070919 0.866393
v -12.092749 -0.111921 -7.847432
v 12.172696 19.422897 13.943892
v 2.229537 -0.111921 15.699428
v 7.046906 19.422897 -15.124563
v -2.903741 -0.111921 -13.374872
v -1.116812 14.423046 15.785447
v -7.554861 -0.102896 10.755489
v 12.971538 14.693798 -3.527555
v 6.533487 0.167853 -8.557510
v -5.669920 14.423046 -12.642692
v -11.505483 14.693798 10.550233
v 2.194787 -0.102896 -10.380035
v -3.642416 0.167853 12.799553
v 11.071645 19.422897 -12.992769
v -17.315163 19.422897 -4.850948
v 13.846721 -0.111921 -3.289849
v -14.532603 -0.111921 4.857823
v 4.358594 19.070919 19.038570
v -18.900736 19.070919 0.866393
v 11.166578 -0.111921 10.324743
v -12.092749 -0.111921 -7.847432
v 12.172696 19.422897 13.943892
v 7.046906 19.422897 -15.124563
v 2.229537 -0.111921 15.699428
v -2.903741 -0.111921 -13.374872
v -1.116812 14.423046 15.785447
v 12.971538 14.693798 -3.527555
v -7.554861 -0.102896 10.755489
v 6.533487 0.167853 -8.557510
v 7.187313 8.578851 -14.243297
v 10.250559 -0.086300 -4.919866
v -17.502317 8.878852 -0.626823
v -11.784662 0.213700 7.226866
v 19.750059 14.118855 -0.089726
v 13.157055 -0.096300 9.140340
v -8.894205 14.118855 -18.019278
v -13.488744 -0.096300 -6.858228
v -12.065837 13.728851 19.876600
v 0.751845 -0.096300 16.850878
v -15.098718 13.728851 -14.789431
v -1.956085 -0.096300 -14.100934
v -1.390203 16.218855 20.217812
v -9.801685 -0.096300 13.829170
v 18.352100 14.118855 -5.274019
v 8.895926 -0.096300 -10.994928
v -13.663347 8.578851 12.539912
v -13.019761 -0.086300 2.747461
v 14.316475 8.878852 9.158837
v 11.962225 0.213700 -0.271354
v 7.187313 8.578851 -14.243297
v -17.502317 8.878852 -0.626823
v 10.250559 -0.086300 -4.919866
v -11.784662 0.213700 7.226866
v 19.750059 14.118855 -0.089726
v -8.894205 14.118855 -18.019278
v 13.157055 -0.096300 9.140340
v -13.488744 -0.096300 -6.858228
v -12.065837 13.728851 19.876600
v -15.098718 13.728851 -14.789431
v 0.751845 -0.096300 16.850878
v -1.956085 -0.096300 -14.100934
v -1.390203 16.218855 20.217812
v 18.352100 14.118855 -5.274019
v -9.801685 -0.096300 13.829170
v 8.895926 -0.096300 -10.994928
v -13.663347 8.578851 12.539912
v 14.316475 8.878852 9.158837
v -13.019761 -0.086300 2.747461
v 11.962225 0.213700 -0.271354
v -9.817850 16.745518 -5.336375
v -0.534911 -0.086300 -0.479085
v -2.684850 17.045519 10.777624
v 1.909307 0.213700 5.045616
v -0.255850 22.285519 -13.134375
v 2.888915 -0.096300 -0.880052
v -13.044848 22.285519 4.470625
v -1.495311 -0.096300 5.158463
v 12.603150 22.285519 2.006625
v 3.529982 -0.096300 4.709476
v -3.559850 22.285519 -12.546375
v 5.722150 16.745518 9.104626
v 0.812050 -0.086300 5.247299
v 5.141150 17.045519 -8.500376
v 0.612767 0.213700 -0.791215
v -9.817850 16.745518 -5.336375
v -2.684850 17.045519 10.777624
v -0.534911 -0.086300 -0.479085
v 1.909307 0.213700 5.045616
v -0.255850 22.285519 -13.134375
v -13.044848 22.285519 4.470625
v 2.888915 -0.096300 -0.880052
v -1.495311 -0.096300 5.158463
v 12.603150 22.285519 2.006625
v -3.559850 22.285519 -12.546375
v 3.529982 -0.096300 4.709476
v 5.722150 16.745518 9.104626
v 5.141150 17.045519 -8.500376
v 0.812050 -0.086300 5.247299
v 0.612767 0.213700 -0.791215
v -13.709600 21.363699 -6.918500
v -5.719600 -0.086300 -10.138500
v -3.519600 21.663700 16.101500
v 4.460400 0.213700 12.871500
v -0.049600 21.803699 -15.058498
v 8.540400 -0.096300 -11.808500
v -18.319599 20.803705 7.091500
v -9.719600 -0.096300 13.341500
v 15.140400 22.113697 11.261500
v 15.140400 -0.096300 1.221500
v -15.929600 22.113697 11.261500
v -15.929600 -0.096300 1.221500
v 18.320400 20.803705 3.571500
v 11.210400 -0.096300 11.471500
v -4.769600 21.803699 -14.218498
v -11.889600 -0.096300 -9.318500
v 8.490400 21.363699 13.711500
v -0.109600 -0.086300 13.711500
v 7.660400 21.663700 -11.438500
v -0.939600 0.213700 -11.438500
v -13.709600 21.363699 -6.918500
v -3.519600 21.663700 16.101500
v -5.719600 -0.086300 -10.138500
v 4.460400 0.213700 12.871500
v -0.049600 21.803699 -15.058498
v -18.319599 20.803705 7.091500
v 8.540400 -0.096300 -11.808500
v -9.719600 -0.096300 13.341500
v 15.140400 22.113697 11.261500
v -15.929600 22.113697 11.261500
v 15.140400 -0.096300 1.221500
v -15.929600 -0.096300 1.221500
v 18.320400 20.803705 3.571500
v -4.769600 21.803699 -14.218498
v 11.210400 -0.096300 11.471500
v -11.889600 -0.096300 -9.318500
v 8.490400 21.363699 13.711500
v 7.660400 21.663700 -11.438500
v -0.109600 -0.086300 13.711500
v -0.939600 0.213700 -11.438500
v 10.846506 16.745518 -3.652571
v 1.158633 -0.086300 0.336372
v -6.082562 17.045519 -8.546258
v -4.644653 0.213700 -1.342458
v 10.673779 20.085518 8.684816
v -0.735004 -0.096300 3.216915
v 5.408173 20.085518 -12.428423
v -2.542649 -0.096300 -4.023086
v -9.190525 20.085518 8.802939
v -5.428902 -0.096300 0.115119
v 12.347121 20.085518 5.775845
v -10.204889 16.745518 -1.030731
v -4.093848 -0.086300 -2.312647
v 3.654800 17.045519 9.840484
v 0.660025 0.213700 1.416180
v 10.846506 16.745518 -3.652571
v -6.082562 17.045519 -8.546258
v 1.158633 -0.086300 0.336372
v -4.644653 0.213700 -1.342458
v 10.673779 20.085518 8.684816
v 5.408173 20.085518 -12.428423
v -0.735004 -0.096300 3.216915
v -2.542649 -0.096300 -4.023086
v -9.190525 20.085518 8.802939
v 12.347121 20.085518 5.775845
v -5.428902 -0.096300 0.115119
v -10.204889 16.745518 -1.030731
v 3.654800 17.045519 9.840484
v -4.093848 -0.086300 -2.312647
v 0.660025 0.213700 1.416180
v -9.575338 24.901163 0.000000
v 0.174662 24.901163 0.000000
v 8.324661 24.801163 0.000000
v -9.575338 0.001161 0.000000
v 0.174662 0.001161 0.000000
v 8.324661 -0.098840 0.000000
v 0.041327 22.501162 -9.516673
v 0.041328 24.901163 0.033334
v 0.041329 24.801163 8.183334
v 0.041327 0.001161 -9.716673
v 0.041328 0.001161 0.033334
v 0.041329 -0.098840 8.183334
v 6.141567 24.301161 -6.062703
v 0.005689 24.901163 0.014478
v -5.123274 24.301163 8.348219
v 6.141567 0.001161 -7.562703
v 0.005689 0.001161 0.014478
v -5.123274 -0.098840 8.348219
v 6.265695 23.601168 6.460382
v -0.001495 23.601168 -1.008559
v -5.240224 23.501165 -7.251827
v 6.265695 0.001161 7.360383
v -0.001495 0.001161 -0.108558
v -5.240224 -0.098840 -6.351827
v -9.207775 22.601162 -8.565468
v 0.164542 23.201162 0.022001
v 7.998834 23.101162 2.268449
v -9.207775 0.001161 -2.665467
v 0.164542 0.001161 0.022001
v 7.998834 -0.098840 2.268449
v 2.659525 20.101160 -11.962777
v 0.027186 23.201162 0.017292
v -2.219261 21.701162 11.551588
v 2.714655 0.001161 -13.255029
v 0.027186 0.001161 0.017292
v -2.219261 -0.098840 10.751585
v 7.571414 22.001160 -10.061147
v -0.001876 23.201162 -0.010657
v -7.229251 21.201162 10.286526
v 7.984873 0.001161 -9.503043
v -0.001876 0.001161 -0.010657
v -7.229251 -0.098840 9.486526
v 4.938902 20.501167 10.211046
v 0.273207 21.901167 -0.996044
v -3.541709 21.101164 -11.941456
v 4.690828 0.001161 10.276184
v 0.025133 0.001161 -0.130907
v -3.789784 -0.098840 -12.176328
# 228 vertices

vt 0.996100 0.003900
vt 0.996100 1.000000
vt 0.000000 0.003900
vt 0.000000 1.000000
vt 1.038874 0.017632
vt 1.037916 0.987400
vt 0.518816 0.985613
vt 0.519774 0.015844
vt -0.000283 0.983826
vt 0.000673 0.014056
# 10 texture coordinates

vn -0.846412 -0.490549 -0.207239
vn -0.244945 -0.458983 -0.854012
vn 0.533386 0.499417 -0.682703
vn 0.874855 -0.459162 -0.154268
vn 0.707541 -0.489935 0.509265
vn 0.846412 0.490549 0.207239
vn 0.244945 0.458983 0.854012
vn -0.533386 -0.499417 0.682702
vn -0.874855 0.459162 0.154268
vn -0.707541 0.489935 -0.509265
vn -0.330087 -0.743064 -0.582149
vn -0.330215 -0.744173 -0.580659
vn 0.415022 -0.623006 -0.663039
vn 0.404678 -0.633059 -0.659903
vn 0.394247 -0.642974 -0.656623
vn 0.724887 0.685942 -0.063419
vn 0.641696 -0.542949 0.541693
vn 0.637491 -0.578049 0.509377
vn 0.631823 -0.611823 0.475892
vn 0.088127 -0.743103 0.663349
vn 0.088911 -0.744388 0.661802
vn 0.330087 0.743064 0.582149
vn 0.330215 0.744173 0.580659
vn -0.415021 0.623006 0.663039
vn -0.404678 0.633059 0.659903
vn -0.394247 0.642974 0.656623
vn -0.724887 -0.685942 0.063419
vn -0.641696 0.542949 -0.541693
vn -0.637491 0.578049 -0.509377
vn -0.631823 0.611823 -0.475891
vn -0.088127 0.743103 -0.663349
vn -0.088911 0.744388 -0.661802
vn -0.851065 -0.358728 0.383410
vn -0.847633 -0.361538 0.388341
vn -0.844164 -0.364332 0.393256
vn -0.741775 -0.399254 -0.538856
vn 0.629371 -0.339547 -0.698999
vn 0.961562 -0.272167 -0.036371
vn 0.960415 -0.275546 -0.040943
vn 0.959236 -0.278916 -0.045514
vn 0.851065 0.358728 -0.383410
vn 0.847633 0.361538 -0.388341
vn 0.844164 0.364332 -0.393256
vn 0.741775 0.399254 0.538856
vn -0.629371 0.339547 0.698999
vn -0.961562 0.272167 0.036371
vn -0.960415 0.275546 0.040943
vn -0.959236 0.278916 0.045513
vn -0.846825 -0.372438 0.379708
vn -0.709251 -0.367474 -0.601602
vn -0.716475 -0.411129 -0.563593
vn -0.721260 -0.453385 -0.523666
vn 0.000000 0.411917 -0.911222
vn 0.532153 -0.451706 -0.716083
vn 0.579637 -0.405912 -0.706581
vn 0.624546 -0.358314 -0.693940
vn 0.927608 -0.371908 -0.035049
vn 0.846825 0.372438 -0.379708
vn 0.709251 0.367474 0.601602
vn 0.716475 0.411129 0.563593
vn 0.721260 0.453385 0.523666
vn 0.000000 -0.411917 0.911222
vn -0.532153 0.451706 0.716083
vn -0.579637 0.405912 0.706581
vn -0.624546 0.358314 0.693940
vn -0.927608 0.371908 0.035049
vn 0.253345 -0.358729 -0.898404
vn 0.247361 -0.361538 -0.898945
vn 0.241366 -0.364332 -0.899447
vn 0.873726 -0.434880 -0.217906
vn 0.129211 -0.371668 0.919330
vn -0.590218 -0.272168 0.759979
vn -0.585979 -0.275546 0.762039
vn -0.581720 -0.278916 0.764073
vn -0.253345 0.358729 0.898404
vn -0.247361 0.361538 0.898945
vn -0.241366 0.364332 0.899447
vn -0.873726 0.434880 0.217906
vn -0.129211 0.371668 -0.919330
vn 0.590218 0.272168 -0.759979
vn 0.585979 0.275546 -0.762039
vn 0.581720 0.278916 -0.764073
vn 0.000000 0.000000 1.000000
vn -1.000000 -0.000000 0.000000
vn -0.741381 0.019442 -0.670803
vn -0.776560 0.038818 -0.628846
vn -0.799966 0.009754 -0.599966
vn -0.783230 0.000000 -0.621732
vn -0.851635 0.000000 -0.524135
vn 0.765814 -0.024506 -0.642595
vn -0.487823 0.125926 0.863812
vn -0.267348 0.243402 0.932352
vn -0.383306 0.062440 0.921508
vn -0.488604 0.000000 0.872506
vn -0.275637 0.000000 0.961262
vn -0.978426 0.005035 -0.206538
vn -0.980059 0.010070 -0.198449
vn -0.979322 0.004396 -0.202258
vn -0.979199 0.000000 -0.202903
vn -0.978782 0.007514 -0.204767
vn -0.980200 0.003757 -0.197975
vn -0.782109 -0.015357 -0.622953
vn -0.764822 -0.030699 -0.643510
vn -0.794947 -0.001993 -0.606676
vn -0.808693 0.000000 -0.588231
vn -0.795688 0.022734 -0.605280
vn -0.807299 0.011370 -0.590034
vn 0.917170 -0.019036 -0.398041
vn 0.912425 -0.012341 -0.409057
vn 0.934044 -0.017398 -0.356734
vn 0.933625 -0.024694 -0.357401
vn 0.953320 -0.007811 -0.301862
vn 0.949056 -0.015726 -0.314714
# 113 normals

g bush
usemtl bush
s 1
f 1/1/1 2/2/1 3/3/1
f 3/3/1 2/2/1 4/4/1
f 5/1/2 6/2/2 7/3/2
f 7/3/2 6/2/2 8/4/2
f 9/1/3 10/2/3 11/3/3
f 11/3/3 10/2/3 12/4/3
f 13/1/4 14/2/4 15/3/4
f 15/3/4 14/2/4 16/4/4
f 17/1/5 18/2/5 19/3/5
f 19/3/5 18/2/5 20/4/5
f 21/1/6 22/3/6 23/2/6
f 23/2/6 22/3/6 24/4/6
f 25/1/7 26/3/7 27/2/7
f 27/2/7 26/3/7 28/4/7
f 29/1/8 30/3/8 31/2/8
f 31/2/8 30/3/8 32/4/8
f 33/1/9 34/3/9 35/2/9
f 35/2/9 34/3/9 36/4/9
f 37/1/10 38/3/10 39/2/10
f 39/2/10 38/3/10 40/4/10
f 41/1/11 42/2/11 43/3/11
f 43/3/11 42/2/11 44/4/12
f 45/1/13 46/2/14 47/3/14
f 47/3/14 46/2/14 48/4/15
f 49/1/16 50/2/16 51/3/16
f 51/3/16 50/2/16 52/4/16
f 53/1/17 54/2/18 55/3/18
f 55/3/18 54/2/18 56/4/19
f 57/1/20 58/2/20 59/3/20
f 59/3/20 58/2/20 60/4/21
f 61/1/22 62/3/22 63/2/22
f 63/2/22 62/3/22 64/4/23
f 65/1/24 66/3/25 67/2/25
f 67/2/25 66/3/25 68/4/26
f 69/1/27 70/3/27 71/2/27
f 71/2/27 70/3/27 72/4/27
f 73/1/28 74/3/29 75/2/29
f 75/2/29 74/3/29 76/4/30
f 77/1/31 78/3/31 79/2/31
f 79/2/31 78/3/31 80/4/32
f 81/1/33 82/2/34 83/3/34
f 83/3/34 82/2/34 84/4/35
f 85/1/36 86/2/36 87/3/36
f 87/3/36 86/2/36 88/4/36
f 89/1/37 90/2/37 91/3/37
f 92/1/38 93/2/39 94/3/39
f 94/3/39 93/2/39 95/4/40
f 96/1/41 97/3/42 98/2/42
f 98/2/42 97/3/42 99/4/43
f 100/1/44 101/3/44 102/2/44
f 102/2/44 101/3/44 103/4/44
f 104/1/45 105/3/45 106/2/45
f 107/1/46 108/3/47 109/2/47
f 109/2/47 108/3/47 110/4/48
f 111/1/49 112/2/49 113/3/49
f 113/3/49 112/2/49 114/4/49
f 115/1/50 116/2/51 117/3/51
f 117/3/51 116/2/51 118/4/52
f 119/1/53 120/2/53 121/3/53
f 121/3/53 120/2/53 122/4/53
f 123/1/54 124/2/55 125/3/55
f 125/3/55 124/2/55 126/4/56
f 127/1/57 128/2/57 129/3/57
f 129/3/57 128/2/57 130/4/57
f 131/1/58 132/3/58 133/2/58
f 133/2/58 132/3/58 134/4/58
f 135/1/59 136/3/60 137/2/60
f 137/2/60 136/3/60 138/4/61
f 139/1/62 140/3/62 141/2/62
f 141/2/62 140/3/62 142/4/62
f 143/1/63 144/3/64 145/2/64
f 145/2/64 144/3/64 146/4/65
f 147/1/66 148/3/66 149/2/66
f 149/2/66 148/3/66 150/4/66
f 151/1/67 152/2/68 153/3/68
f 153/3/68 152/2/68 154/4/69
f 155/1/70 156/2/70 157/3/70
f 157/3/70 156/2/70 158/4/70
f 159/1/71 160/2/71 161/3/71
f 162/1/72 163/2/73 164/3/73
f 164/3/73 163/2/73 165/4/74
f 166/1/75 167/3/76 168/2/76
f 168/2/76 167/3/76 169/4/77
f 170/1/78 171/3/78 172/2/78
f 172/2/78 171/3/78 173/4/78
f 174/1/79 175/3/79 176/2/79
f 177/1/80 178/3/81 179/2/81
f 179/2/81 178/3/81 180/4/82
f 181/5/83 184/6/83 185/7/83
f 181/5/83 185/7/83 182/8/83
f 185/7/83 186/9/83 183/10/83
f 185/7/83 183/10/83 182/8/83
f 187/5/84 190/6/84 191/7/84
f 187/5/84 191/7/84 188/8/84
f 191/7/84 192/9/84 189/10/84
f 191/7/84 189/10/84 188/8/84
f 193/5/85 196/6/86 197/7/87
f 193/5/85 197/7/87 194/8/88
f 197/7/87 198/9/89 195/10/89
f 197/7/87 195/10/89 194/8/88
f 199/5/90 202/6/90 203/7/90
f 199/5/90 203/7/90 200/8/90
f 203/7/90 204/9/90 201/10/90
f 203/7/90 201/10/90 200/8/90
f 205/5/91 208/6/92 209/7/93
f 205/5/91 209/7/93 206/8/94
f 209/7/93 210/9/95 207/10/95
f 209/7/93 207/10/95 206/8/94
f 211/5/96 214/6/97 215/7/98
f 211/5/96 215/7/98 212/8/99
f 215/7/98 216/9/100 213/10/101
f 215/7/98 213/10/101 212/8/99
f 217/5/102 220/6/103 221/7/104
f 217/5/102 221/7/104 218/8/105
f 221/7/104 222/9/106 219/10/107
f 221/7/104 219/10/107 218/8/105
f 223/5/108 226/6/109 227/7/110
f 223/5/108 227/7/110 224/8/111
f 227/7/110 228/9/112 225/10/113
f 227/7/110 225/10/113 224/8/111
# 120 triangles in group

# 120 triangles total

