# 3ds Max Wavefront OBJ Exporter v0.97b - (c)2007 guruware
# File Created: 11.12.2018 21:26:45

mtllib coiron.mtl

#
# object coiron
#

v  0.0000 2.1245 -31.9295
v  0.0000 0.3661 -31.9295
v  0.0000 0.3661 -30.2858
v  0.0000 2.1245 -30.2858
v  0.0000 0.3661 -28.6420
v  0.0000 2.1245 -28.6420
v  0.0000 0.3661 -26.9983
v  0.0000 2.1245 -26.9983
v  0.0000 0.3661 -25.3546
v  0.0000 2.1245 -25.3546
v  0.0000 3.8829 -31.9295
v  0.0000 3.8829 -30.2858
v  0.0000 3.8829 -28.6420
v  0.0000 3.8829 -26.9983
v  0.0000 3.8829 -25.3546
v  0.0000 5.6413 -31.9295
v  0.0000 5.6413 -30.2858
v  0.0000 5.6413 -28.6420
v  0.0000 5.6413 -26.9983
v  0.0000 5.6413 -25.3546
v  0.0000 7.3998 -31.9295
v  0.0000 7.3998 -30.2858
v  0.0000 7.3998 -28.6420
v  0.0000 7.3998 -26.9983
v  0.0000 7.3998 -25.3546
# 25 vertices

vn -1.0000 -0.0000 -0.0000
# 1 vertex normals

vt 0.0000 0.2500 0.0000
vt 0.0000 0.0000 0.0000
vt 0.2500 0.0000 0.0000
vt 0.2500 0.2500 0.0000
vt 0.5000 0.0000 0.0000
vt 0.5000 0.2500 0.0000
vt 0.7500 0.0000 0.0000
vt 0.7500 0.2500 0.0000
vt 1.0000 0.0000 0.0000
vt 1.0000 0.2500 0.0000
vt 0.0000 0.5000 0.0000
vt 0.2500 0.5000 0.0000
vt 0.5000 0.5000 0.0000
vt 0.7500 0.5000 0.0000
vt 1.0000 0.5000 0.0000
vt 0.0000 0.7500 0.0000
vt 0.2500 0.7500 0.0000
vt 0.5000 0.7500 0.0000
vt 0.7500 0.7500 0.0000
vt 1.0000 0.7500 0.0000
vt 0.0000 1.0000 0.0000
vt 0.2500 1.0000 0.0000
vt 0.5000 1.0000 0.0000
vt 0.7500 1.0000 0.0000
vt 1.0000 1.0000 0.0000
# 25 texture coords

g coiron
usemtl 03___Default
s 1
f 1/1/1 2/2/1 3/3/1 4/4/1 
f 4/4/1 3/3/1 5/5/1 6/6/1 
f 6/6/1 5/5/1 7/7/1 8/8/1 
f 8/8/1 7/7/1 9/9/1 10/10/1 
f 11/11/1 1/1/1 4/4/1 12/12/1 
f 12/12/1 4/4/1 6/6/1 13/13/1 
f 13/13/1 6/6/1 8/8/1 14/14/1 
f 14/14/1 8/8/1 10/10/1 15/15/1 
f 16/16/1 11/11/1 12/12/1 17/17/1 
f 17/17/1 12/12/1 13/13/1 18/18/1 
f 18/18/1 13/13/1 14/14/1 19/19/1 
f 19/19/1 14/14/1 15/15/1 20/20/1 
f 21/21/1 16/16/1 17/17/1 22/22/1 
f 22/22/1 17/17/1 18/18/1 23/23/1 
f 23/23/1 18/18/1 19/19/1 24/24/1 
f 24/24/1 19/19/1 20/20/1 25/25/1 
# 16 polygons

#
# object coiron001
#

v  3.2875 2.1245 -28.6420
v  3.2875 0.3661 -28.6420
v  1.6437 0.3661 -28.6420
v  1.6437 2.1245 -28.6420
v  0.0000 0.3661 -28.6420
v  0.0000 2.1245 -28.6420
v  -1.6437 0.3661 -28.6420
v  -1.6437 2.1245 -28.6420
v  -3.2875 0.3661 -28.6420
v  -3.2875 2.1245 -28.6420
v  3.2875 3.8829 -28.6420
v  1.6437 3.8829 -28.6420
v  0.0000 3.8829 -28.6420
v  -1.6437 3.8829 -28.6420
v  -3.2875 3.8829 -28.6420
v  3.2875 5.6413 -28.6420
v  1.6437 5.6413 -28.6420
v  0.0000 5.6413 -28.6420
v  -1.6437 5.6413 -28.6420
v  -3.2875 5.6413 -28.6420
v  3.2875 7.3998 -28.6420
v  1.6437 7.3998 -28.6420
v  0.0000 7.3998 -28.6420
v  -1.6437 7.3998 -28.6420
v  -3.2875 7.3998 -28.6420
# 25 vertices

vn 0.0000 -0.0000 -1.0000
# 1 vertex normals

vt 0.0000 0.2500 0.0000
vt 0.0000 0.0000 0.0000
vt 0.2500 0.0000 0.0000
vt 0.2500 0.2500 0.0000
vt 0.5000 0.0000 0.0000
vt 0.5000 0.2500 0.0000
vt 0.7500 0.0000 0.0000
vt 0.7500 0.2500 0.0000
vt 1.0000 0.0000 0.0000
vt 1.0000 0.2500 0.0000
vt 0.0000 0.5000 0.0000
vt 0.2500 0.5000 0.0000
vt 0.5000 0.5000 0.0000
vt 0.7500 0.5000 0.0000
vt 1.0000 0.5000 0.0000
vt 0.0000 0.7500 0.0000
vt 0.2500 0.7500 0.0000
vt 0.5000 0.7500 0.0000
vt 0.7500 0.7500 0.0000
vt 1.0000 0.7500 0.0000
vt 0.0000 1.0000 0.0000
vt 0.2500 1.0000 0.0000
vt 0.5000 1.0000 0.0000
vt 0.7500 1.0000 0.0000
vt 1.0000 1.0000 0.0000
# 25 texture coords

g coiron001
usemtl 03___Default
s 1
f 26/26/2 27/27/2 28/28/2 29/29/2 
f 29/29/2 28/28/2 30/30/2 31/31/2 
f 31/31/2 30/30/2 32/32/2 33/33/2 
f 33/33/2 32/32/2 34/34/2 35/35/2 
f 36/36/2 26/26/2 29/29/2 37/37/2 
f 37/37/2 29/29/2 31/31/2 38/38/2 
f 38/38/2 31/31/2 33/33/2 39/39/2 
f 39/39/2 33/33/2 35/35/2 40/40/2 
f 41/41/2 36/36/2 37/37/2 42/42/2 
f 42/42/2 37/37/2 38/38/2 43/43/2 
f 43/43/2 38/38/2 39/39/2 44/44/2 
f 44/44/2 39/39/2 40/40/2 45/45/2 
f 46/46/2 41/41/2 42/42/2 47/47/2 
f 47/47/2 42/42/2 43/43/2 48/48/2 
f 48/48/2 43/43/2 44/44/2 49/49/2 
f 49/49/2 44/44/2 45/45/2 50/50/2 
# 16 polygons

